<?xml version="1.0" encoding="utf-8"?>
<!-- Generator: Adobe Illustrator 23.0.3, SVG Export Plug-In . SVG Version: 6.00 Build 0)  -->
<svg version="1.1" id="Layer_1" xmlns="http://www.w3.org/2000/svg" xmlns:xlink="http://www.w3.org/1999/xlink" x="0px" y="0px"
	 viewBox="0 0 595.3 841.9" style="enable-background:new 0 0 595.3 841.9;" xml:space="preserve">
<style type="text/css">
	.st0{fill:#1C3D78;}
	.st1{fill:#040000;}
	.st2{fill:#FFFFFF;}
</style>
<g id="XMLID_93_">
	<path id="XMLID_94_" class="st0" d="M288.2,733.3c-73.4,0-142.4-28.6-194.4-80.5c-51.9-51.9-80.5-120.9-80.5-194.4
		S41.9,316,93.8,264.1c51.9-51.9,120.9-80.5,194.4-80.5s142.4,28.6,194.4,80.5C534.4,316,563,385.1,563,458.5
		s-28.6,142.4-80.5,194.4C430.6,704.8,361.6,733.3,288.2,733.3z M288.2,191.1c-71.4,0-138.6,27.8-189.1,78.3
		c-50.5,50.5-78.3,117.6-78.3,189.1c0,71.4,27.8,138.6,78.3,189.1c50.5,50.5,117.6,78.3,189.1,78.3c71.4,0,138.6-27.8,189.1-78.3
		c50.5-50.5,78.3-117.6,78.3-189.1c0-71.4-27.8-138.6-78.3-189.1C426.7,218.9,359.6,191.1,288.2,191.1z"/>
</g>
<g id="XMLID_80_">
	<g id="XMLID_81_">
		<g id="XMLID_90_">
			
				<rect id="XMLID_91_" x="-7.2" y="120.5" transform="matrix(0.7071 -0.7071 0.7071 0.7071 -82.4526 44.4447)" class="st1" width="39.3" height="2.5"/>
		</g>
		<g id="XMLID_88_">
			
				<rect id="XMLID_89_" x="20.6" y="120.5" transform="matrix(0.7071 -0.7071 0.7071 0.7071 -74.3094 64.1042)" class="st1" width="39.3" height="2.5"/>
		</g>
		<g id="XMLID_86_">
			
				<rect id="XMLID_87_" x="48.4" y="120.5" transform="matrix(0.7071 -0.7071 0.7071 0.7071 -66.1651 83.7598)" class="st1" width="39.3" height="2.5"/>
		</g>
		<g id="XMLID_84_">
			
				<rect id="XMLID_85_" x="76.2" y="120.5" transform="matrix(0.7071 -0.7071 0.7071 0.7071 -58.023 103.4231)" class="st1" width="39.3" height="2.5"/>
		</g>
		<g id="XMLID_82_">
			
				<rect id="XMLID_83_" x="104" y="120.5" transform="matrix(0.7071 -0.7071 0.7071 0.7071 -49.8797 123.0826)" class="st1" width="39.3" height="2.5"/>
		</g>
	</g>
</g>
<g id="XMLID_50_">
	<path id="XMLID_51_" class="st2" d="M282.9,729.6c0-3,2.4-5.4,5.4-5.4l0,0c3,0,5.4,2.4,5.4,5.4l0,0c0,3-2.4,5.4-5.4,5.4l0,0
		C285.3,735,282.9,732.6,282.9,729.6z M252.7,732.8c-3-0.4-5.1-3.1-4.7-6.1l0,0c0.4-3,3.1-5.1,6.1-4.7l0,0c3,0.4,5.1,3.1,4.7,6.1
		l0,0c-0.3,2.7-2.7,4.7-5.4,4.7l0,0C253.2,732.8,253,732.8,252.7,732.8z M317.8,728c-0.4-3,1.7-5.7,4.7-6.1l0,0
		c3-0.4,5.7,1.7,6.1,4.7l0,0c0.4,3-1.7,5.7-4.7,6.1l0,0l0,0l0,0c-0.2,0-0.5,0-0.7,0l0,0C320.5,732.8,318.2,730.8,317.8,728z
		 M217.7,726L217.7,726L217.7,726c-2.9-0.8-4.6-3.7-3.9-6.6l0,0c0.8-2.9,3.7-4.6,6.6-3.9l0,0c2.9,0.8,4.6,3.7,3.9,6.6l0,0
		c-0.6,2.4-2.8,4-5.2,4l0,0C218.6,726.1,218.2,726.1,217.7,726z M352.3,722c-0.8-2.9,1-5.9,3.9-6.6l0,0c2.9-0.8,5.9,1,6.6,3.9l0,0
		c0.8,2.9-1,5.9-3.9,6.6l0,0c-0.5,0.1-0.9,0.2-1.4,0.2l0,0C355.1,726.1,352.9,724.4,352.3,722z M183.9,714.7c-2.8-1.1-4.1-4.3-3-7.1
		l0,0c1.1-2.8,4.3-4.1,7.1-3l0,0c2.8,1.1,4.1,4.3,3,7.1l0,0c-0.8,2.1-2.9,3.4-5,3.4l0,0C185.2,715.1,184.5,714.9,183.9,714.7z
		 M385.7,711.6c-1.1-2.8,0.2-5.9,3-7.1l0,0c2.8-1.1,5.9,0.2,7.1,3l0,0c1.1,2.8-0.2,5.9-3,7.1l0,0c-0.7,0.3-1.4,0.4-2,0.4l0,0
		C388.6,715,386.5,713.7,385.7,711.6z M151.8,699.1c-2.6-1.5-3.5-4.8-2-7.4l0,0c1.5-2.6,4.8-3.5,7.4-2l0,0c2.6,1.5,3.5,4.8,2,7.4
		l0,0c-1,1.8-2.8,2.7-4.7,2.7l0,0C153.5,699.8,152.6,699.6,151.8,699.1z M417.4,696.9c-1.5-2.6-0.6-5.9,2-7.4l0,0
		c2.6-1.5,5.9-0.6,7.4,2l0,0c1.5,2.6,0.6,5.9-2,7.4l0,0c-0.8,0.5-1.8,0.7-2.7,0.7l0,0C420.2,699.7,418.4,698.7,417.4,696.9z
		 M447,678.3c-1.8-2.4-1.3-5.8,1.1-7.6l0,0c2.4-1.8,5.8-1.3,7.6,1.1l0,0c1.8,2.4,1.3,5.8-1.1,7.6l0,0c-1,0.7-2.1,1.1-3.3,1.1l0,0
		C449.7,680.4,448,679.7,447,678.3z M473.9,656c-2.1-2.1-2.1-5.6,0.1-7.7l0,0c2.1-2.1,5.6-2.1,7.7,0.1l0,0c2.1,2.1,2.1,5.6-0.1,7.7
		l0,0c-1,1-2.4,1.5-3.8,1.5l0,0C476.4,657.6,475,657.1,473.9,656z M497.8,630.5c-2.3-1.8-2.7-5.3-0.9-7.6l0,0
		c1.9-2.4,5.3-2.8,7.6-0.9l0,0c2.3,1.9,2.7,5.3,0.9,7.6l0,0c-1.1,1.3-2.7,2.1-4.3,2.1l0,0C500,631.6,498.8,631.2,497.8,630.5z
		 M518.2,602.1c-2.6-1.5-3.4-4.9-1.9-7.4l0,0c1.5-2.6,4.9-3.4,7.4-1.9l0,0c2.6,1.5,3.4,4.9,1.9,7.4l0,0c-1,1.7-2.8,2.6-4.7,2.6l0,0
		C520.1,602.8,519.1,602.6,518.2,602.1z M534.8,571.3c-2.7-1.2-4-4.4-2.8-7.1l0,0c1.2-2.8,4.4-4,7.1-2.8l0,0c2.7,1.2,4,4.4,2.8,7.1
		l0,0c-0.9,2-2.9,3.3-5,3.3l0,0C536.3,571.7,535.5,571.6,534.8,571.3z M547.3,538.6c-2.9-0.8-4.5-3.8-3.7-6.7l0,0
		c0.8-2.9,3.8-4.5,6.7-3.7l0,0c2.9,0.8,4.5,3.8,3.7,6.7l0,0c0,0,0,0,0,0l0,0c-0.7,2.4-2.8,3.9-5.2,3.9l0,0
		C548.3,538.8,547.8,538.7,547.3,538.6z M555.4,504.5c-3-0.4-5-3.2-4.5-6.2l0,0c0.5-3,3.2-5,6.2-4.5l0,0c3,0.4,5,3.2,4.5,6.2l0,0
		c-0.4,2.7-2.7,4.6-5.3,4.6l0,0C556,504.6,555.7,504.6,555.4,504.5z M559.1,469.8c-3-0.1-5.4-2.5-5.3-5.5l0,0c0.1-3,2.5-5.4,5.5-5.3
		l0,0c3,0.1,5.4,2.5,5.3,5.5l0,0l0,0l0,0c-0.1,2.9-2.5,5.3-5.4,5.3l0,0C559.2,469.8,559.1,469.8,559.1,469.8z M552.3,430
		c-0.3-3,1.8-5.6,4.8-6l0,0c3-0.3,5.6,1.8,6,4.8l0,0c0.3,3-1.8,5.6-4.8,6l0,0c-0.2,0-0.4,0-0.6,0l0,0
		C555,434.8,552.6,432.8,552.3,430z M546.5,396.2c-0.7-2.9,1.1-5.8,4-6.5l0,0c2.9-0.7,5.8,1.1,6.5,4l0,0l0,0l0,0
		c0.7,2.9-1.1,5.8-4,6.5l0,0c-0.4,0.1-0.8,0.2-1.3,0.2l0,0C549.3,400.4,547.1,398.7,546.5,396.2z M536.4,363.5
		c-1.1-2.8,0.3-5.9,3.1-7l0,0c2.8-1.1,5.9,0.3,7,3.1l0,0c1.1,2.8-0.3,5.9-3.1,7l0,0c-0.6,0.2-1.3,0.4-1.9,0.4l0,0
		C539.2,367,537.2,365.6,536.4,363.5z M522.1,332.4L522.1,332.4c-1.4-2.6-0.4-5.9,2.2-7.3l0,0c2.6-1.4,5.9-0.4,7.3,2.2l0,0
		c1.4,2.6,0.4,5.9-2.2,7.3l0,0c-0.8,0.4-1.7,0.6-2.6,0.6l0,0C524.9,335.2,523,334.2,522.1,332.4z M503.9,303.3
		c-1.7-2.4-1.2-5.8,1.2-7.6l0,0c2.4-1.8,5.8-1.2,7.6,1.2l0,0l0,0l0,0c1.8,2.4,1.2,5.8-1.2,7.6l0,0c-1,0.7-2.1,1-3.2,1l0,0
		C506.6,305.6,504.9,304.8,503.9,303.3z M482.1,276.9c-2-2.2-1.9-5.6,0.2-7.7l0,0c2.2-2,5.6-1.9,7.7,0.2l0,0l0,0l0,0
		c2,2.2,1.9,5.6-0.3,7.7l0,0c-1,1-2.4,1.5-3.7,1.5l0,0C484.6,278.6,483.1,278,482.1,276.9z M457.1,253.4c-2.3-1.9-2.6-5.3-0.7-7.6
		l0,0c1.9-2.3,5.3-2.6,7.6-0.7l0,0c2.3,1.9,2.6,5.3,0.7,7.6l0,0c-1.1,1.3-2.6,2-4.2,2l0,0C459.3,254.6,458.1,254.2,457.1,253.4z
		 M429.3,233.3c-2.5-1.6-3.3-4.9-1.7-7.5l0,0c1.6-2.5,4.9-3.3,7.5-1.7l0,0c2.5,1.6,3.3,4.9,1.7,7.5l0,0c-1,1.6-2.8,2.5-4.6,2.5l0,0
		C431.2,234.2,430.2,233.9,429.3,233.3z"/>
</g>
<g id="XMLID_38_">
	<g id="XMLID_39_">
		<g id="XMLID_48_">
			
				<rect id="XMLID_49_" x="451.8" y="305.5" transform="matrix(0.7071 -0.7071 0.7071 0.7071 -78.8153 423.1871)" class="st1" width="39.3" height="2.5"/>
		</g>
		<g id="XMLID_46_">
			
				<rect id="XMLID_47_" x="479.6" y="305.5" transform="matrix(0.7071 -0.7071 0.7071 0.7071 -70.6721 442.8466)" class="st1" width="39.3" height="2.5"/>
		</g>
		<g id="XMLID_44_">
			
				<rect id="XMLID_45_" x="507.4" y="305.5" transform="matrix(0.7071 -0.7071 0.7071 0.7071 -62.5289 462.506)" class="st1" width="39.3" height="2.5"/>
		</g>
		<g id="XMLID_42_">
			
				<rect id="XMLID_43_" x="535.2" y="305.5" transform="matrix(0.7071 -0.7071 0.7071 0.7071 -54.3907 482.1483)" class="st1" width="39.3" height="2.5"/>
		</g>
		<g id="XMLID_40_">
			
				<rect id="XMLID_41_" x="563" y="305.5" transform="matrix(0.7071 -0.7071 0.7071 0.7071 -46.2425 501.825)" class="st1" width="39.3" height="2.5"/>
		</g>
	</g>
</g>
</svg>
