<?xml version="1.0" encoding="utf-8"?>
<!-- Generator: Adobe Illustrator 18.1.0, SVG Export Plug-In . SVG Version: 6.00 Build 0)  -->
<!DOCTYPE svg PUBLIC "-//W3C//DTD SVG 1.0//EN" "http://www.w3.org/TR/2001/REC-SVG-20010904/DTD/svg10.dtd">
<svg version="1.0" id="Layer_1" xmlns="http://www.w3.org/2000/svg" xmlns:xlink="http://www.w3.org/1999/xlink" x="0px" y="0px"
	 viewBox="0 0 255.6576996 100.6364746" enable-background="new 0 0 255.6576996 100.6364746" xml:space="preserve">
<g>
	<g>
		<g>
			<g>
				<g>
					<path fill="#28295F" d="M6.1332998,43.3530006v14.6998253h10.2002001v4.7396507H6.1332998v19.6203651H0.7465V38.6195412
						h17.2167988v4.7334595H6.1332998z"/>
					<path fill="#28295F" d="M25.9623985,82.4128418V38.6195412h17.2113991v4.7334595H31.3422985v14.6998253h10.2083988v4.7396507
						H31.3422985v14.8859215h11.8314991v4.7344437H25.9623985z"/>
					<path fill="#28295F" d="M68.3231964,80.195755c-1.6908951,1.6034698-4.3208008,2.6503067-7.8812904,2.6503067
						c-3.4424057,0-6.074707-0.9264755-7.8306084-2.6503067c-2.0673943-2.0275421-2.7558975-4.5444107-2.7558975-9.2211761
						h5.3843002c0,2.8876953,0.3153992,4.4877167,1.5048981,5.7179031c0.7518997,0.8036499,2.0004997,1.3543854,3.6973076,1.3543854
						c1.8158913,0,3.0003929-0.5507355,3.8148918-1.4201202c1.189003-1.2862854,1.4365005-2.9477234,1.4365005-5.8436737
						c0-5.0428696-0.7523956-6.5766754-4.3773956-8.0548592l-5.0777054-2.0270538
						c-4.5625-1.8461609-6.0658989-4.3050575-6.0658989-10.9537544c0-3.813179,1.1216049-6.9484787,3.3799019-8.9770088
						c1.7504997-1.5985527,4.1298981-2.5216827,7.0663986-2.5216827c3.2603035,0,5.7026978,0.92313,7.3936005,2.5216827
						c2.2474976,2.1551819,2.9398956,4.9819565,2.9398956,8.9770088h-5.380394c0-2.3364677-0.2544022-3.9350204-1.3784027-5.2870445
						c-0.7509995-0.9236183-1.9355011-1.4806404-3.6328011-1.4806404c-1.5625,0-2.6908989,0.5570221-3.445797,1.3583107
						c-1.0605011,1.1673012-1.5596008,2.9495964-1.5596008,5.2294655c0,4.3055496,0.6830978,5.5946884,4.2548981,7.072876
						l5.0093002,2.0308838c5.0673981,2.0299034,6.260704,5.1028099,6.260704,11.9981308
						C71.0800018,75.2176361,70.4541016,78.102478,68.3231964,80.195755z"/>
					<path fill="#28295F" d="M90.6079025,43.3530006v39.0598412h-5.3794022V43.3530006h-7.5142059v-4.7334595h20.3442993v4.7334595
						H90.6079025z"/>
					<path fill="#28295F" d="M106.5702972,82.4128418V38.6195412h5.3856964v43.7933006H106.5702972z"/>
					<path fill="#28295F" d="M134.612793,82.4128418h-5.5058899l-9.6411057-43.7933006h5.953598l6.4442978,35.242733
						l6.5147095-35.242733h5.8856964L134.612793,82.4128418z"/>
					<path fill="#28295F" d="M164.6557007,82.4128418l-2.1317902-10.3328629H152.196701l-2.1278992,10.3328629h-5.6338043
						l10.3896942-43.7933006h5.2011108l10.323288,43.7933006H164.6557007z M157.3969116,47.1667709l-4.2011108,20.1782684h8.3291016
						L157.3969116,47.1667709z"/>
					<path fill="#28295F" d="M177.4925995,82.4128418V38.6195412h5.3907013v39.058857h11.8320007v4.7344437H177.4925995z"/>
				</g>
			</g>
			<path fill="#28295F" d="M221.9496918,82.3005295l-12.4570923-34.1291733v34.1291733h-3.6845093V38.5154839h3.6845093
				l12.4570923,34.1272163l-0.0576019-34.1272163h3.6982117v43.7850456H221.9496918z"/>
			<path fill="#28295F" d="M253.4164886,80.1712952c-1.3721008,1.5880356-3.5527954,2.3825455-5.847702,2.3825455
				c-2.4305878,0-4.4862976-0.8544464-5.7948761-2.3825455c-1.8643188-2.2050018-2.2969208-4.4685593-2.2969208-10.9498291
				c0-4.8985291,0.5576019-8.3821564,1.8018036-11.6858711l7.1551971-19.0201111h3.4913025l-7.0966949,18.7193451
				c0.9901886-0.7979469,2.1737976-1.2857971,3.6053925-1.2857971c2.0567017,0,3.7979126,0.7892036,5.0449982,2.200676
				c1.6191101,1.7737427,2.1787109,3.5508308,2.1787109,11.0717583
				C255.6576996,75.8274231,255.2211914,78.0861664,253.4164886,80.1712952z M250.6820984,60.1666412
				c-0.8184052-0.8572998-1.9326019-1.2848167-3.1133118-1.2848167c-1.2470856,0-2.3075867,0.4275169-3.1180878,1.2848167
				c-1.2989044,1.4700279-1.4942017,4.0354385-1.4942017,9.0548248c0,5.0145798,0.1952972,7.5204391,1.4942017,8.9885025
				c0.8105011,0.857399,1.8710022,1.2867813,3.1180878,1.2867813c1.2383118,0,2.2949066-0.4293823,3.1133118-1.2867813
				c1.3008118-1.4680634,1.4901886-3.9739227,1.4901886-8.9885025
				C252.172287,64.2020798,251.9829102,61.5738831,250.6820984,60.1666412z"/>
			<g>
				<g>
					<g>
						<line fill="#28295F" x1="229.6537933" y1="57.0299644" x2="236.8812866" y2="57.0299644"/>
						<path fill="#28295F" d="M229.5726929,57.14748c2.4072113,0,4.8184052,0,7.2285004,0
							c0.1533966,0,0.4472961-0.2369995,0.1582031-0.2369995c-2.4082031,0-4.8144073,0-7.2264862,0
							C229.578598,56.9104805,229.2953949,57.14748,229.5726929,57.14748L229.5726929,57.14748z"/>
					</g>
					<g>
						<path fill="#28295F" d="M229.6537933,57.2703018c2.4101105,0,4.8202972,0,7.2274933,0
							c0.0059052,0,0.0059052-0.4826431,0-0.4826431c-2.407196,0-4.8173828,0-7.2274933,0V57.2703018L229.6537933,57.2703018z"/>
						<path fill="#28295F" d="M229.5239105,57.3494949c2.4022827,0,4.8143768,0,7.2177887,0
							c0.0702972,0,0.3515015-0.0355682,0.3515015-0.1367722c0-0.1569176,0-0.3161926,0-0.4754677
							c0-0.022995-0.0644073-0.022995-0.0644073-0.022995c-2.4208832,0-4.8251953,0-7.2382965,0
							c-0.0693054,0-0.3437958,0.0316391-0.344696,0.1323547c0,0.1564255,0,0.3195343,0,0.4802818
							c0.0009003,0.0537491,0.4198914-0.0043221,0.4198914-0.1141739c-0.003891-0.1569176-0.003891-0.3161926,0-0.4754677
							c-0.1123047,0.0455894-0.2285004,0.0911827-0.3417816,0.1352997c1.2910004,0,2.5868835,0,3.8895874,0
							c0.7402954,0,1.4804993,0,2.2236938,0c0.5214996,0,1.0381012-0.1582947,1.0381012,0.4543419
							c0.1190948-0.0469666,0.2295074-0.0920677,0.3368988-0.1333351c-2.4042816,0-4.8085938,0-7.2216949,0
							C229.7123871,57.1935616,229.321701,57.3494949,229.5239105,57.3494949z"/>
					</g>
				</g>
			</g>
			<path fill="#28295F" d="M235.6693878,53.5050697c-0.5410004,0.5775604-1.3739929,0.9306984-2.411087,0.9306984
				c-1.0371094,0-1.8516083-0.353138-2.3926086-0.9306984c-1.0117035-1.0589218-1.125-2.300602-1.125-7.1261292
				c0-4.8323059,0.1132965-6.0672073,1.125-7.1298637c0.5410004-0.5766754,1.3554993-0.9303017,2.3926086-0.9303017
				c1.0370941,0,1.8700867,0.3536263,2.411087,0.9303017c1.0059052,1.0626564,1.125,2.2975578,1.125,7.1298637
				C236.7943878,51.2044678,236.675293,52.4461479,235.6693878,53.5050697z M234.7025909,40.0642204
				c-0.3231964-0.3526459-0.7929993-0.5743141-1.4442902-0.5743141c-0.655304,0-1.1075134,0.2216682-1.4229126,0.5743141
				c-0.6473999,0.7790833-0.7675934,1.6882629-0.7675934,6.3147202c0,4.6254768,0.1201935,5.5351448,0.7675934,6.3109856
				c0.3153992,0.3535309,0.7676086,0.5742188,1.4229126,0.5742188c0.6512909,0,1.1210938-0.2206879,1.4442902-0.5742188
				c0.6523132-0.7758408,0.7666016-1.6855087,0.7666016-6.3109856
				C235.4691925,41.7524834,235.3549042,40.8433037,234.7025909,40.0642204z"/>
		</g>
		<g>
			<g>
				<path fill="#28295F" d="M91.3163986,14.5738487c-0.3438034,0.053256-0.6880035,0.1055288-1.028801,0.1616335
					c-1.1923981-3.163599-2.4116898-6.3161926-3.6582031-9.4624987c-0.1147995,3.3732805-0.2006989,6.746562-0.2587967,10.1140451
					c-0.3438034,0.0580702-0.6850967,0.1223307-1.0279007,0.1823664c-1.3138962-3.7062759-2.6557007-7.4048872-4.0331955-11.0986843
					c0.3769989-0.0680923,0.7480927-0.1366763,1.1240997-0.2062426c1.0522003,3.1655641,2.089798,6.33496,3.1097946,9.5090733
					c0.0410004-3.3612938,0.1099014-6.7254362,0.2041016-10.0929203c0.3877029-0.0643587,0.7769012-0.1300931,1.1660004-0.1948447
					c1.2285995,3.145421,2.4317017,6.2989979,3.6084061,9.4577827c-0.1088028-3.3248396-0.2002029-6.6525292-0.2729034-9.9835587
					c0.3705978-0.0542381,0.7435989-0.1094589,1.1128006-0.163697
					C91.3169022,6.7232656,91.3022003,10.6497364,91.3163986,14.5738487z"/>
				<path fill="#28295F" d="M96.969696,13.771183c-0.5156021-3.843935-1.033699-7.691308-1.5503006-11.5352421
					c1.4403992-0.1870823,2.8804016-0.3621774,4.3227997-0.5239093c0.0345993,0.2864208,0.0678024,0.5743155,0.100502,0.8612275
					c-1.0932007,0.1247871-2.1865005,0.2533081-3.282196,0.3909669c0.1952972,1.4921396,0.3891983,2.98084,0.5815964,4.4719973
					c0.9287033-0.1151581,1.8535004-0.2259927,2.7817001-0.3320127c0.035202,0.284554,0.0683975,0.5714664,0.1019974,0.8578873
					c-0.9232941,0.1065111-1.8460999,0.2168541-2.7705002,0.3333874c0.1954041,1.4969549,0.3907013,2.9923363,0.5830002,4.4906664
					c1.0499039-0.1323528,2.1006088-0.2585163,3.1509018-0.3751478c0.0332031,0.286912,0.0689011,0.5756912,0.1010971,0.862112
					C99.716301,13.4285583,98.3432007,13.5931406,96.969696,13.771183z"/>
				<path fill="#28295F" d="M105.6899033,12.8001032c-0.3759995-3.8617191-0.7485046-7.7224555-1.1206055-11.584568
					c0.3451996-0.0322285,0.685997-0.0638674,1.0312958-0.0936395c0.3300018,3.5729399,0.6582031,7.1481395,0.988205,10.7239304
					c1.0557022-0.0920677,2.108902-0.1799097,3.1660004-0.2595968c0.0219955,0.286912,0.0439987,0.5767717,0.0673981,0.8636837
					C108.4447937,12.5554419,107.0659027,12.6710911,105.6899033,12.8001032z"/>
				<path fill="#28295F" d="M117.9819031,11.5430946c-0.3887024,0.3603096-0.9111023,0.5949488-1.6143036,0.6285534
					c-0.7675018,0.0383205-1.3788986-0.1905212-1.8060989-0.591609c-0.7993011-0.7397814-0.9429016-1.6499414-1.1621017-5.2031317
					c-0.2197037-3.5546639-0.1929016-4.4768114,0.5526962-5.3034525c0.3921051-0.4490371,1.0078125-0.7436132,1.8130035-0.7829163
					c0.7934952-0.0369448,1.3838043,0.1649745,1.8163986,0.5367811c0.5654068,0.4865715,0.8417969,1.2613325,0.8936005,2.1422117
					c-0.342804,0.0119874-0.6836014,0.0273156-1.0259018,0.0412681c-0.0263977-0.5881698-0.1684952-1.1558038-0.5546951-1.5146405
					c-0.2549057-0.2331651-0.5957031-0.3661077-1.0840073-0.3416415c-0.5057983,0.0245644-0.846199,0.2091904-1.0756989,0.4822482
					c-0.4745941,0.5944582-0.5209961,1.2718459-0.3246994,4.6787305c0.1944046,3.4102259,0.3218079,4.0780821,0.8355026,4.6197767
					c0.2513962,0.2489843,0.5951996,0.3967638,1.078598,0.3726902c0.467804-0.0229921,0.780304-0.1865911,1.0038986-0.4408817
					c0.3374023-0.3909664,0.4267044-0.9652815,0.4009018-1.5554171c0.3325043-0.0139523,0.6650009-0.026824,0.998497-0.0407772
					C118.7474976,10.2045317,118.5249023,11.0115204,117.9819031,11.5430946z"/>
				<path fill="#28295F" d="M127.4916992,11.1972275c-0.4043045,0.4279118-1.0205002,0.6893749-1.7862015,0.6990042
					c-0.7705002,0.0071726-1.3730011-0.2418118-1.7826996-0.6625509c-0.7700043-0.7691603-0.8778915-1.683054-0.9541016-5.2448907
					c-0.0781021-3.5575135-0.0131989-4.4777937,0.7632065-5.2761369c0.4086914-0.4337089,1.0365906-0.7051946,1.845192-0.7124656
					c0.8081055-0.0081554,1.4546051,0.2499672,1.8823013,0.6741452c0.785202,0.7830146,0.8721008,1.7007403,0.8710938,5.2597275
					C128.3304901,9.4968805,128.2416992,10.4122477,127.4916992,11.1972275z M126.7054977,1.2826455
					c-0.2416992-0.2599895-0.6118011-0.4235883-1.1156998-0.4169068c-0.5102005,0.0057972-0.8602982,0.175095-1.0996017,0.4408817
					c-0.4961014,0.5766737-0.5708008,1.2498362-0.5141983,4.6648769c0.0650024,3.4125838,0.158699,4.0828967,0.6548004,4.6485658
					c0.2402954,0.2556658,0.5766983,0.4149418,1.0644989,0.4101267c0.4848022-0.0038319,0.8393021-0.17313,1.0702972-0.4346914
					c0.4809036-0.5718594,0.5679016-1.2459059,0.5551987-4.6590791
					C127.3070984,2.5228527,127.2173004,1.8497882,126.7054977,1.2826455z"/>
				<path fill="#28295F" d="M139.0708008,11.9955702c0.1445007-3.1166315,0.2890015-6.2337551,0.4335938-9.3522539
					c-0.847702,2.0121188-1.6739044,4.0286589-2.4814911,6.0499153c-0.2412109-0.0081558-0.4834137-0.0177851-0.7295074-0.0278072
					c-0.6562042-2.0030785-1.3300934-4.0051746-2.0184937-6.0067797c-0.0791016,3.0557125-0.155304,6.1089678-0.2295074,9.1650734
					c-0.3300934-0.0090399-0.6591949-0.0143461-0.9931946-0.0220098c0.0868988-3.8785214,0.1620941-7.7555685,0.2411957-11.632616
					c0.3486938,0.0057972,0.6934052,0.0134613,1.0429993,0.0216167c0.8173981,2.3038454,1.6123047,4.610147,2.3798981,6.9206738
					c0.9403992-2.2519655,1.907196-4.4968557,2.8935089-6.7384062c0.3486938,0.0154264,0.6875,0.029772,1.0331879,0.0470654
					c-0.1981964,3.8741977-0.3924866,7.7478061-0.5878906,11.6234779
					C139.7269897,12.0267181,139.3989105,12.0113897,139.0708008,11.9955702z"/>
				<path fill="#28295F" d="M145.0298004,12.3380966c0.2791901-3.8688927,0.5565948-7.7392583,0.8348999-11.6071672
					c1.4492035,0.0993384,2.8984985,0.2120398,4.344696,0.3386939c-0.0263062,0.288386-0.0516968,0.5761824-0.0780945,0.8650596
					c-1.0996094-0.0955063-2.2012024-0.184233-3.2969055-0.2652954c-0.1112976,1.4973471-0.2303925,2.9971509-0.3457031,4.4959717
					c0.933609,0.0695662,1.8603973,0.1419821,2.7920074,0.2201953c-0.0223999,0.2887788-0.0487976,0.5756912-0.0771027,0.8626032
					c-0.9248047-0.0777216-1.8495941-0.1511202-2.7763977-0.2201953c-0.1172028,1.5050111-0.2333984,3.0101209-0.3496094,4.5151324
					c1.0596008,0.0777216,2.1123199,0.1612406,3.1688995,0.2533073c-0.0301971,0.2874041-0.0526886,0.5757895-0.0791016,0.865551
					C147.7904968,12.5409985,146.4086914,12.4336023,145.0298004,12.3380966z"/>
				<path fill="#28295F" d="M163.3647003,3.4325211c-0.5117035,3.5546644-1.027298,7.1088371-1.5438995,10.6605539
					c-0.3223114-0.0441179-0.6524048-0.0892181-0.9766083-0.1348095c0.5010071-3.5546646,1.0010071-7.1121778,1.5-10.6672354
					c-0.6864929-0.0926569-1.375-0.1837416-2.066391-0.2687345c0.0399933-0.2882876,0.0751953-0.575691,0.1151886-0.8616204
					c1.7246094,0.2192125,3.4512024,0.456701,5.1748047,0.7129569c-0.0467987,0.2849469-0.0937042,0.5723503-0.1338043,0.8582797
					C164.7484894,3.6282504,164.0570984,3.5280275,163.3647003,3.4325211z"/>
				<path fill="#28295F" d="M172.1489105,15.2009287c-0.4717102,0.3478317-1.1318207,0.4916811-1.8926086,0.3593283
					c-0.7578125-0.1348095-1.3047028-0.4917793-1.6308136-0.9782524c-0.6132965-0.8996468-0.5361938-1.8164883,0.0625-5.3289013
					c0.5976105-3.5119224,0.8359222-4.4033151,1.7509155-5.0428734c0.4872894-0.3516638,1.1620941-0.5013101,1.9550934-0.3617845
					c0.7969055,0.141098,1.3954926,0.5143785,1.7274933,1.0104809c0.628006,0.912518,0.5411072,1.8308334-0.1375885,5.3273292
					C173.3031921,13.6857967,173.043396,14.5695257,172.1489105,15.2009287z M173.266098,5.3175926
					c-0.194397-0.298408-0.5214996-0.5282326-1.030304-0.6179419c-0.4980011-0.0863686-0.8730011,0.0167041-1.1582031,0.2326741
					c-0.601593,0.474977-0.8007965,1.1240664-1.3916016,4.4891915c-0.5917969,3.3646345-0.6239929,4.0392704-0.2431946,4.6850195
					c0.1856079,0.2955589,0.4893036,0.5157537,0.967804,0.6006489c0.4823914,0.0830269,0.8583984-0.0153284,1.1425934-0.229825
					c0.5888977-0.4735031,0.7949066-1.1173849,1.4346008-4.4757299
					C173.6214905,6.6441684,173.6625977,5.9686475,173.266098,5.3175926z"/>
			</g>
		</g>
		<rect x="0.0000003" y="25.0866241" fill="#28295F" width="254.7621918" height="0.606937"/>
		<g>
			<path fill="#28295F" d="M64.685997,95.4233246c0,0.6039886-0.2328949,1.1125717-0.6973,1.515625
				c-0.4774971,0.4077682-1.0565987,0.6188202-1.7557945,0.6188202c-0.4121056,0-0.8286057-0.0191574-1.2334023-0.0517807v1.8106918
				c0,0.2427979,0.0370979,0.4102249,0.0990982,0.5027847c0.0679016,0.0955048,0.1665001,0.1707687,0.3110008,0.2245178
				c0.1576996,0.0685806,0.3824005,0.1084747,0.6689987,0.1396255c0.0560989,0.0023575,0.0810013,0.051384,0.0810013,0.1391296
				c0,0.096489-0.0249023,0.1463089-0.0810013,0.1463089c-0.2343979,0-0.5073013-0.0095291-0.8266945-0.0296783
				c-0.3066063-0.0287857-0.5688057-0.0307541-0.7798042-0.0307541c-0.2108994,0-0.4770012,0.0019684-0.7840996,0.0307541
				c-0.3194008,0.0201492-0.6049995,0.0296783-0.8339996,0.0296783c-0.0567017,0-0.0820961-0.0498199-0.0820961-0.1463089
				c0-0.0877457,0.0253944-0.1367722,0.0820961-0.1391296c0.4203987-0.0455933,0.7045975-0.1223297,0.8544998-0.2303162
				c0.1542969-0.106514,0.2285004-0.3132477,0.2285004-0.6366119v-4.8303452c0-0.2432861-0.0264015-0.4078674-0.0869026-0.5018997
				c-0.0615997-0.100708-0.1777992-0.180397-0.3237991-0.2331619c-0.1523018-0.0585632-0.3730011-0.1035614-0.6722984-0.1357956
				c-0.0567017,0-0.0820961-0.048439-0.0820961-0.1386414c0-0.0958939,0.0253944-0.1448288,0.0820961-0.1448288
				c0.2290001,0,0.5145988,0.010025,0.8339996,0.0331116c0.3070984,0.0196533,0.5732002,0.0253525,0.7840996,0.0253525
				c0.2109985,0,0.4731979-0.0056992,0.775898-0.0253525c0.3232994-0.0230865,0.5962029-0.0331116,0.8252029-0.0331116
				c0.8588982,0,1.5053978,0.1764679,1.9525948,0.5387497C64.4706955,94.2248764,64.685997,94.7434769,64.685997,95.4233246z
				 M63.5409966,95.4233246c0-0.5473938-0.1405983-0.9768753-0.418499-1.2911072
				c-0.2684975-0.3012543-0.6302986-0.4610214-1.0820007-0.4610214c-0.2665939,0-0.4862976,0.0215149-0.6308975,0.0709381
				c-0.1533012,0.0322266-0.2430992,0.0988464-0.3110008,0.1943588c-0.0620003,0.0911789-0.0990982,0.2830734-0.0990982,0.5498428
				v2.360939c0,0.1463013,0.0487976,0.2423019,0.1478996,0.2969284c0.0888977,0.0499191,0.2968979,0.0768433,0.6108971,0.0768433
				c0.5629997,0,1-0.1574097,1.3183022-0.476944C63.3817978,96.419754,63.5409966,95.9803467,63.5409966,95.4233246z"/>
			<path fill="#28295F" d="M78.8763962,96.9389496c0,1.0813217-0.3622971,1.9694748-1.072197,2.6593399
				c-0.7076035,0.6899643-1.6377029,1.0381851-2.7807999,1.0381851c-1.1406021,0-2.0683975-0.3482208-2.7782974-1.0381851
				c-0.705101-0.6898651-1.0630035-1.5780182-1.0630035-2.6593399c0-1.0877151,0.3579025-1.9877548,1.0653992-2.6982574
				c0.7148972-0.7105942,1.6480026-1.064621,2.7759018-1.064621c1.1400986,0,2.0689011,0.3540268,2.7738953,1.064621
				C78.5140991,94.9511948,78.8763962,95.8512344,78.8763962,96.9389496z M77.7215958,96.9389496
				c0-1.0166779-0.2430954-1.838501-0.7464981-2.4723587c-0.4888-0.6437836-1.1401901-0.9581146-1.9516983-0.9581146
				c-0.8130035,0-1.4594955,0.3143311-1.9564972,0.9581146c-0.4893036,0.6338577-0.7344055,1.4556808-0.7344055,2.4723587
				c0,1.0017319,0.2451019,1.8135376,0.7236023,2.4290237c0.4932022,0.622261,1.1493988,0.9408112,1.9673004,0.9408112
				c0.8222961,0,1.4756012-0.3185501,1.9575043-0.9408112C77.4785004,98.7524872,77.7215958,97.9406815,77.7215958,96.9389496z"/>
			<path fill="#28295F" d="M92.6083984,100.3227386c0,0.096489-0.028801,0.1463089-0.0864944,0.1463089
				c-0.1303101,0-0.334404-0.0095291-0.6259079-0.0364532c-0.2173004-0.0220108-0.3622971-0.0239792-0.4327011-0.0239792
				c-0.094696,0-0.2572937,0.0019684-0.4706955,0.0307541c-0.2143021,0.0201492-0.3759003,0.0296783-0.469696,0.0296783
				l-1.5786057-2.5303345c-0.2310028-0.34832-0.4082031-0.5718536-0.5507965-0.6802368
				c-0.1352005-0.0955048-0.4135971-0.1477737-0.8275986-0.1477737v2.2059784c0,0.234642,0.0331955,0.4005966,0.0941925,0.4999313
				c0.0625,0.0983582,0.1675034,0.1736221,0.3296051,0.2273712c0.1576996,0.0685806,0.3769989,0.1084747,0.6582031,0.1396255
				c0.064003,0.0023575,0.0907974,0.051384,0.0907974,0.1391296c0,0.096489-0.0267944,0.1463089-0.0874023,0.1463089
				c-0.2303925,0-0.5038986-0.0095291-0.8281021-0.0296783c-0.310997-0.0287857-0.5737-0.0307541-0.783699-0.0307541
				c-0.2108994,0-0.4745941,0.0019684-0.7798004,0.0307541c-0.3182983,0.0201492-0.5976028,0.0296783-0.8260956,0.0296783
				c-0.0611038,0-0.0870056-0.0498199-0.0870056-0.1463089c0-0.0877457,0.0259018-0.1367722,0.0870056-0.1391296
				c0.2845993-0.0311508,0.5077972-0.0710449,0.6610947-0.1396255c0.1543045-0.0537491,0.2505035-0.1290131,0.3198013-0.2245178
				c0.0615005-0.0925598,0.0849991-0.2599869,0.0849991-0.5027847v-4.8303452c0-0.2346344-0.0234985-0.3992157-0.0776978-0.5018997
				c-0.0566025-0.0915756-0.1694031-0.180397-0.3198013-0.2331619c-0.1532974-0.0585632-0.3744965-0.1035614-0.668396-0.1357956
				c-0.0611038,0-0.0870056-0.048439-0.0870056-0.1386414c0-0.0958939,0.0259018-0.1448288,0.0870056-0.1448288
				c0.2284927,0,0.5077972,0.010025,0.8260956,0.0331116c0.3052063,0.0196533,0.5689011,0.0253525,0.7798004,0.0253525
				c0.2099991,0,0.472702-0.0056992,0.783699-0.0253525c0.3242035-0.0230865,0.5977097-0.0331116,0.8281021-0.0331116
				c0.7807999,0,1.3824005,0.1582947,1.8080978,0.4720306c0.4239044,0.3258209,0.6324005,0.776329,0.6324005,1.3573303
				c0,0.3531342-0.1308899,0.6994934-0.421402,1.0070419c-0.2807999,0.3195343-0.6529007,0.5555496-1.1357956,0.7258301
				l1.6113968,2.5745392c0.1396027,0.2258987,0.3139114,0.389595,0.538002,0.4917831
				c0.2139053,0.1122131,0.5035019,0.1918945,0.8491974,0.2230453
				C92.5869064,100.1859665,92.6083984,100.234993,92.6083984,100.3227386z M89.9422989,95.1762085
				c0-1.0050812-0.4453049-1.5050125-1.3265991-1.5050125c-0.2915039,0-0.5186005,0.0292816-0.6704025,0.0772247
				c-0.1449966,0.0426483-0.2465973,0.115654-0.2973938,0.2173462c-0.0517044,0.0911865-0.0820007,0.2749252-0.0820007,0.5205688
				v2.2956924c0.2040939,0.0278091,0.4570007,0.0397949,0.7670975,0.0397949c0.5565948,0,0.9667969-0.131958,1.2279968-0.3962708
				C89.8187943,96.1684113,89.9422989,95.7538605,89.9422989,95.1762085z"/>
			<path fill="#28295F" d="M105.1362,95.0207596c0,0.0642624-0.0591049,0.0921707-0.1880035,0.0921707
				c-0.0531998,0-0.0912933-0.0192642-0.1068954-0.0686874c-0.1460037-0.4749756-0.3560028-0.8193665-0.6353073-1.0257111
				c-0.286087-0.1957245-0.6927948-0.2993851-1.2411957-0.2993851h-0.4916992c-0.1665039,0-0.2875977,0.029274-0.3476028,0.0848923
				c-0.0644989,0.0513916-0.0966949,0.1617279-0.0966949,0.3085251v5.2041168c0,0.234642,0.032196,0.4005966,0.0966949,0.4999313
				c0.0600052,0.0983582,0.169899,0.1736221,0.3182983,0.2273712c0.1576996,0.0685806,0.3848038,0.1084747,0.6675034,0.1396255
				c0.0551987,0.0023575,0.0834961,0.051384,0.0834961,0.1391296c0,0.096489-0.0282974,0.1463089-0.0834961,0.1463089
				c-0.2314987,0-0.5098038-0.0095291-0.8335037-0.0296783c-0.3021927-0.0287857-0.5625-0.0307541-0.7665939-0.0307541
				c-0.2152939,0-0.4761047,0.0019684-0.7925034,0.0307541c-0.3197937,0.0201492-0.5967026,0.0296783-0.8374023,0.0296783
				c-0.0541992,0-0.0756989-0.0498199-0.0756989-0.1463089c0-0.0877457,0.0214996-0.1367722,0.0756989-0.1391296
				c0.4209061-0.0455933,0.7139053-0.1223297,0.8618011-0.2303162c0.1543045-0.106514,0.2290039-0.3132477,0.2290039-0.6366119
				v-5.2041168c0-0.1467972-0.0341034-0.2571335-0.0918045-0.3085251c-0.0682983-0.0556183-0.1835938-0.0848923-0.3602982-0.0848923
				h-0.4019012c-0.4950943,0-0.9423981,0.1218338-1.3423004,0.3679733
				c-0.3964005,0.2451477-0.6595993,0.5628204-0.7811966,0.9519196c-0.0170975,0.0489273-0.0522995,0.0738907-0.1156921,0.0738907
				c-0.1172104,0-0.1782074-0.0279083-0.1782074-0.1094589c0.1948013-0.5171356,0.384697-1.0981293,0.5536957-1.7564545
				c0.4795074,0.0950165,1.5669022,0.1434555,3.2568054,0.1434555c1.7362976,0,2.839798-0.048439,3.3115005-0.1434555
				C104.871994,93.6927109,104.9769974,94.2819595,105.1362,95.0207596z"/>
			<path fill="#28295F" d="M120.7626953,100.3227386c0,0.096489-0.0287933,0.1463089-0.0825958,0.1463089
				c-0.2313995,0-0.5180054-0.0095291-0.8510056-0.0296783c-0.3207932-0.0287857-0.5834961-0.0307541-0.7934952-0.0307541
				c-0.2143021,0-0.4658051,0.0019684-0.7685013,0.0307541c-0.3266983,0.0201492-0.6006012,0.0296783-0.8388977,0.0296783
				c-0.0557022,0-0.0942001-0.0498199-0.0942001-0.1463089c0-0.0877457,0.0249023-0.1367722,0.088295-0.1391296
				c0.4063034-0.0455933,0.6772995-0.1223297,0.8282013-0.2178421c0.146904-0.0963898,0.2246017-0.2897568,0.2246017-0.5656662
				v-0.0834198l-0.2246017-4.9685898l-2.511795,6.2059479c-0.0205002,0.0512924-0.0742035,0.0824356-0.1460037,0.0824356
				c-0.0727005,0-0.1303024-0.0311432-0.1362-0.0824356l-2.3784027-5.9636459l-0.3764954,4.7262878
				c-0.0053024,0.0662231-0.0063019,0.1118164-0.0063019,0.1631088c0,0.2245178,0.0786057,0.3895874,0.2441025,0.490303
				c0.1548004,0.102684,0.4385071,0.167923,0.8529968,0.2135162c0.0494003,0.0023575,0.0743027,0.051384,0.0743027,0.1444397
				c0,0.0911789-0.0332031,0.1409988-0.0987015,0.1409988c-0.1791992,0-0.4217987-0.0095291-0.7416992-0.0296783
				c-0.283699-0.0287857-0.5150986-0.0307541-0.6753006-0.0307541c-0.1756973,0-0.4082031,0.0019684-0.7060013,0.0307541
				c-0.2865982,0.0201492-0.5121994,0.0296783-0.6689987,0.0296783c-0.0473022,0-0.072197-0.0498199-0.072197-0.1463089
				c0-0.0877457,0.0316925-0.1367722,0.0975952-0.1391296c0.4365997-0.0455933,0.7359009-0.1223297,0.9096985-0.2374878
				c0.1646042-0.1113281,0.2617035-0.3223877,0.2905045-0.6294403l0.5410004-4.8303452
				c0.0043945-0.057579,0.0043945-0.118103,0.0043945-0.1622238c0-0.2326736-0.0809937-0.387619-0.2401962-0.4883347
				c-0.1635971-0.0936432-0.4458008-0.167923-0.8705978-0.2202988c-0.0492935,0-0.0767059-0.048439-0.0767059-0.1386414
				c0-0.0436249,0.0118027-0.0747681,0.0376053-0.0958939c0.0239944-0.0355682,0.0391006-0.0489349,0.0615997-0.0489349
				c0.1230011,0,0.3095016,0.010025,0.5472946,0.0331116c0.1983032,0.0196533,0.3482056,0.0253525,0.4483032,0.0253525
				c0.119606,0,0.2923965-0.0056992,0.5179977-0.0253525c0.2310028-0.0230865,0.4092026-0.0331116,0.5391006-0.0331116
				l2.2383041,5.6987457l2.3173981-5.6987457c0.1318054,0,0.3227005,0.010025,0.5423965,0.0331116
				c0.2046051,0.0196533,0.3692017,0.0253525,0.4820023,0.0253525c0.1508026,0,0.3227005-0.0056992,0.5293045-0.0253525
				c0.2093964-0.0230865,0.3915939-0.0331116,0.5443954-0.0331116c0.0649033,0,0.096199,0.0489349,0.096199,0.1448288
				c0,0.0902023-0.0312958,0.1386414-0.0849991,0.1386414c-0.402298,0.0523758-0.6874924,0.1166382-0.8291016,0.2154846
				c-0.1488953,0.0983505-0.2250977,0.2988968-0.2250977,0.564682v0.0906906l0.2422028,4.8303452
				c0.0093002,0.2427979,0.0497971,0.4102249,0.1176987,0.5027847c0.0596008,0.0955048,0.171402,0.1707687,0.3320007,0.2245178
				c0.147995,0.0685806,0.3711014,0.1084747,0.6660004,0.1396255
				C120.733902,100.1859665,120.7626953,100.234993,120.7626953,100.3227386z"/>
			<path fill="#28295F" d="M133.3559113,98.7749863c-0.2802124,0.5896454-0.5078125,1.1571808-0.6894073,1.6940613
				c-1.3085938-0.0479507-2.2432098-0.0604324-2.8018036-0.0604324c-0.5477905,0-1.4853058,0.0124817-2.7977982,0.0604324
				c-0.0489044,0-0.0801086-0.0498199-0.0801086-0.1463089c0-0.0877457,0.0312042-0.1367722,0.0801086-0.1391296
				c0.2919998-0.0311508,0.5184937-0.0710449,0.663002-0.1396255c0.1523895-0.0537491,0.261795-0.1290131,0.3203888-0.2245178
				c0.0664062-0.0925598,0.0937042-0.2599869,0.0937042-0.5027847v-4.8303452c0-0.2346344-0.027298-0.3992157-0.085907-0.5018997
				c-0.0575867-0.0915756-0.1659927-0.180397-0.3134918-0.2331619c-0.155304-0.0585632-0.3788986-0.1035614-0.6776962-0.1357956
				c-0.0489044,0-0.0801086-0.048439-0.0801086-0.1386414c0-0.0958939,0.0312042-0.1448288,0.0801086-0.1448288
				c0.8797913,0.0402832,1.7772903,0.0584641,2.6932907,0.0584641c0.9248047,0,1.8281097-0.0181808,2.7002106-0.0584641
				c0.0800934,0.5320663,0.1952972,1.0535202,0.3495941,1.5654373c0,0.0738907-0.0576019,0.1060257-0.1797028,0.1060257
				c-0.066391,0-0.1004944-0.0249634-0.1152039-0.0734024c-0.2548981-0.800209-0.8046875-1.2109222-1.6405945-1.2109222h-1.0567017
				c-0.4042969,0-0.6092987,0.2101669-0.6092987,0.6164627v2.2813492h1.3125c0.3535004,0,0.5986023-0.0810623,0.7099152-0.2360153
				c0.1269989-0.1564255,0.2167816-0.4332199,0.2714844-0.8386307c0-0.0407791,0.0429993-0.0791931,0.1387024-0.0791931
				s0.1396027,0.038414,0.1396027,0.0791931c0,0.1769638-0.0156097,0.3929291-0.0263062,0.6467285
				c-0.0253906,0.2542953-0.0323029,0.4567032-0.0323029,0.6111679c0,0.1655579,0.0069122,0.3699341,0.0323029,0.6155777
				c0.0106964,0.270607,0.0263062,0.4889297,0.0263062,0.6568527c0,0.0556183-0.0438995,0.0882339-0.1396027,0.0882339
				s-0.1387024-0.0326157-0.1387024-0.0882339c-0.0614929-0.4116974-0.1533051-0.70578-0.280304-0.8713455
				c-0.1278992-0.1717529-0.3641815-0.2546844-0.7010956-0.2546844h-1.3125v2.5331802
				c0,0.3952866,0.2050018,0.596817,0.6092987,0.596817h1.131897c0.4160004,0,0.8281097-0.1304855,1.2383118-0.3924408
				c0.4042969-0.2681503,0.6991882-0.6039886,0.8963928-0.9965286c0.011795-0.032135,0.035202-0.045105,0.0870056-0.045105
				c0.0545959,0,0.0917969,0.01297,0.1336975,0.0398941C133.3412933,98.6982498,133.3559113,98.7308731,133.3559113,98.7749863z"/>
			<path fill="#28295F" d="M143.1743011,100.3227386c0,0.096489-0.0243988,0.1463089-0.0820007,0.1463089
				c-0.2343903,0-0.5118103-0.0095291-0.8359985-0.0296783c-0.2978058-0.0287857-0.5566101-0.0307541-0.7723999-0.0307541
				c-0.2149048,0-0.472702,0.0019684-0.7784119,0.0307541c-0.3221893,0.0201492-0.5995789,0.0296783-0.839798,0.0296783
				c-0.0576019,0-0.0858917-0.0498199-0.0858917-0.1463089c0-0.0877457,0.0282898-0.1367722,0.0858917-0.1391296
				c0.4199066-0.0455933,0.7060089-0.1223297,0.8603058-0.2303162c0.1474915-0.106514,0.2276001-0.3132477,0.2276001-0.6366119
				v-4.8303452c0-0.2432861-0.0341949-0.4078674-0.094696-0.5018997c-0.0577087-0.100708-0.1669922-0.180397-0.3223114-0.2331619
				c-0.1532898-0.0585632-0.3778992-0.1035614-0.6708984-0.1357956c-0.0576019,0-0.0858917-0.048439-0.0858917-0.1386414
				c0-0.0958939,0.0282898-0.1448288,0.0858917-0.1448288c0.2402191,0,0.5176086,0.010025,0.839798,0.0331116
				c0.3057098,0.0196533,0.5635071,0.0253525,0.7784119,0.0253525c0.2157898,0,0.4745941-0.0056992,0.7723999-0.0253525
				c0.3241882-0.0230865,0.6016083-0.0331116,0.8359985-0.0331116c0.0576019,0,0.0820007,0.0489349,0.0820007,0.1448288
				c0,0.0902023-0.0243988,0.1386414-0.0820007,0.1386414c-0.2929993,0.0322342-0.5205994,0.0772324-0.6690063,0.1357956
				c-0.1503906,0.0527649-0.2588043,0.1324539-0.3125,0.2264862c-0.0653992,0.100708-0.1006012,0.2652893-0.1006012,0.5085754
				v4.8303452c0,0.234642,0.035202,0.4005966,0.1006012,0.4999313c0.0536957,0.0983582,0.1621094,0.1736221,0.3106079,0.2273712
				c0.1502991,0.0685806,0.3701019,0.1084747,0.6678925,0.1396255
				C143.1499023,100.1859665,143.1743011,100.234993,143.1743011,100.3227386z"/>
			<path fill="#28295F" d="M157.0541992,100.3227386c0,0.096489-0.0283966,0.1463089-0.0830078,0.1463089
				c-0.135788,0-0.3417969-0.0095291-0.6347961-0.0364532c-0.2089996-0.0220108-0.3574066-0.0239792-0.4179993-0.0239792
				c-0.1074066,0-0.2635956,0.0019684-0.4803925,0.0307541c-0.2120056,0.0201492-0.3710938,0.0296783-0.4698029,0.0296783
				l-1.5868988-2.5303345c-0.2217102-0.34832-0.4023132-0.5718536-0.5390015-0.6802368
				c-0.1329041-0.0955048-0.4112091-0.1477737-0.8301086-0.1477737v2.2059784c0,0.234642,0.0322113,0.4005966,0.0947113,0.4999313
				c0.0614929,0.0983582,0.1688995,0.1736221,0.3241882,0.2273712c0.1592102,0.0685806,0.3731079,0.1084747,0.6708984,0.1396255
				c0.0498047,0.0023575,0.0820007,0.051384,0.0820007,0.1391296c0,0.096489-0.0243988,0.1463089-0.0820007,0.1463089
				c-0.2343903,0-0.5116882-0.0095291-0.8358917-0.0296783c-0.3144989-0.0287857-0.569397-0.0307541-0.7851868-0.0307541
				c-0.2070007,0-0.4756165,0.0019684-0.7705078,0.0307541c-0.3271027,0.0201492-0.6015015,0.0296783-0.8330078,0.0296783
				c-0.0585938,0-0.089798-0.0498199-0.089798-0.1463089c0-0.0877457,0.0312042-0.1367722,0.089798-0.1391296
				c0.2870941-0.0311508,0.5059052-0.0710449,0.6708984-0.1396255c0.1416168-0.0537491,0.2510071-0.1290131,0.3036957-0.2245178
				c0.0644989-0.0925598,0.097702-0.2599869,0.097702-0.5027847v-4.8303452c0-0.2346344-0.0224915-0.3992157-0.0868988-0.5018997
				c-0.0576935-0.0915756-0.1611938-0.180397-0.3144989-0.2331619c-0.1600952-0.0585632-0.3798981-0.1035614-0.6708984-0.1357956
				c-0.0585938,0-0.089798-0.048439-0.089798-0.1386414c0-0.0958939,0.0312042-0.1448288,0.089798-0.1448288
				c0.2315063,0,0.5059052,0.010025,0.8330078,0.0331116c0.2948914,0.0196533,0.5635071,0.0253525,0.7705078,0.0253525
				c0.2157898,0,0.4706879-0.0056992,0.7851868-0.0253525c0.3242035-0.0230865,0.6015015-0.0331116,0.8358917-0.0331116
				c0.7714996,0,1.3740082,0.1582947,1.7940063,0.4720306c0.4315948,0.3258209,0.6367035,0.776329,0.6367035,1.3573303
				c0,0.3531342-0.131897,0.6994934-0.4190063,1.0070419c-0.2753906,0.3195343-0.6600952,0.5555496-1.1347046,0.7258301
				l1.6152039,2.5745392c0.1327972,0.2258987,0.3057098,0.389595,0.5332031,0.4917831
				c0.219696,0.1122131,0.5019989,0.1918945,0.8583984,0.2230453
				C157.0287933,100.1859665,157.0541992,100.234993,157.0541992,100.3227386z M154.3929901,95.1762085
				c0-1.0050812-0.4393921-1.5050125-1.3309937-1.5050125c-0.2920074,0-0.5117035,0.0292816-0.6708984,0.0772247
				c-0.1397095,0.0426483-0.2490082,0.115654-0.2987976,0.2173462c-0.0478973,0.0911865-0.0801086,0.2749252-0.0801086,0.5205688
				v2.2956924c0.2060089,0.0278091,0.4589996,0.0397949,0.7695007,0.0397949c0.558609,0,0.9629059-0.131958,1.2217102-0.3962708
				C154.2612,96.1684113,154.3929901,95.7538605,154.3929901,95.1762085z"/>
			<path fill="#28295F" d="M166.8304901,100.3227386c0,0.096489-0.0292969,0.1463089-0.0868988,0.1463089
				c-0.2303925,0-0.5048981-0.0095291-0.8271027-0.0296783c-0.3125-0.0287857-0.569397-0.0307541-0.7773895-0.0307541
				c-0.2167969,0-0.4756012,0.0019684-0.7783051,0.0307541c-0.3213043,0.0201492-0.6073914,0.0296783-0.844696,0.0296783
				c-0.0556946,0-0.0781097-0.0498199-0.0781097-0.1463089c0-0.0877457,0.0224152-0.1367722,0.0781097-0.1391296
				c0.4248047-0.0455933,0.7059937-0.1223297,0.8553925-0.2303162c0.1573029-0.106514,0.2344208-0.3132477,0.2344208-0.6366119
				v-4.8303452c0-0.2432861-0.0293121-0.4078674-0.0947113-0.5018997c-0.0644989-0.100708-0.1679993-0.180397-0.3212891-0.2331619
				c-0.1504211-0.0585632-0.3740082-0.1035614-0.6738129-0.1357956c-0.0556946,0-0.0781097-0.048439-0.0781097-0.1386414
				c0-0.0958939,0.0224152-0.1448288,0.0781097-0.1448288c0.2373047,0,0.5233917,0.010025,0.844696,0.0331116
				c0.3027039,0.0196533,0.5615082,0.0253525,0.7783051,0.0253525c0.2079926,0,0.4648895-0.0056992,0.7773895-0.0253525
				c0.3222046-0.0230865,0.5967102-0.0331116,0.8271027-0.0331116c0.0576019,0,0.0868988,0.0489349,0.0868988,0.1448288
				c0,0.0902023-0.0292969,0.1386414-0.0868988,0.1386414c-0.2910004,0.0322342-0.5195007,0.0772324-0.6640015,0.1357956
				c-0.1581879,0.0527649-0.2636871,0.1324539-0.3282013,0.2264862c-0.0546875,0.100708-0.0829926,0.2652893-0.0829926,0.5085754
				v4.8303452c0,0.234642,0.0283051,0.4005966,0.0829926,0.4999313c0.0645142,0.0983582,0.1700134,0.1736221,0.3213043,0.2273712
				c0.1475067,0.0685806,0.3760071,0.1084747,0.6670074,0.1396255
				C166.7973022,100.1859665,166.8304901,100.234993,166.8304901,100.3227386z"/>
			<path fill="#28295F" d="M181.2973022,96.9389496c0,1.0813217-0.3496094,1.9694748-1.0615082,2.6593399
				c-0.7059937,0.6899643-1.6434937,1.0381851-2.780304,1.0381851c-1.1493988,0-2.0829926-0.3482208-2.786087-1.0381851
				c-0.7031097-0.6898651-1.0596008-1.5780182-1.0596008-2.6593399c0-1.0877151,0.3564911-1.9877548,1.0741882-2.6982574
				c0.7071075-0.7105942,1.6368103-1.064621,2.7714996-1.064621c1.1338043,0,2.0606079,0.3540268,2.7744141,1.064621
				C180.9476929,94.9511948,181.2973022,95.8512344,181.2973022,96.9389496z M180.1548004,96.9389496
				c0-1.0166779-0.2548981-1.838501-0.7432098-2.4723587c-0.4989929-0.6437836-1.1503906-0.9581146-1.9561005-0.9581146
				c-0.8153992,0-1.4589996,0.3143311-1.9589996,0.9581146c-0.4920959,0.6338577-0.7440948,1.4556808-0.7440948,2.4723587
				c0,1.0017319,0.2519989,1.8135376,0.7353973,2.4290237c0.4921112,0.622261,1.1513062,0.9408112,1.9676971,0.9408112
				c0.8057098,0,1.4571075-0.3185501,1.9609985-0.9408112C179.9057007,98.7524872,180.1548004,97.9406815,180.1548004,96.9389496z"
				/>
			<path fill="#28295F" d="M196.9223022,93.4768372c0,0.0863724-0.0302124,0.1299973-0.085907,0.1386414
				c-0.4335938,0.0523758-0.7324066,0.1266556-0.8944855,0.234642c-0.1592102,0.106514-0.249115,0.3210068-0.2598114,0.6265869
				l-0.1045074,6.056694c0,0.0704575-0.0468903,0.1030731-0.1298981,0.1030731c-0.0428925,0-0.094696-0.0311432-0.1640015-0.0824356
				l-5.3876953-5.9818268l-0.0635071,4.7444687c-0.0028992,0.0263367-0.0175781,0.0512924-0.0175781,0.0790939
				c0,0.2600937,0.0868835,0.4390182,0.2626801,0.5503464c0.1631012,0.1151581,0.4580078,0.1918945,0.9004059,0.2374878
				c0.0518036,0.0023575,0.0839996,0.051384,0.0839996,0.1391296c0,0.096489-0.032196,0.1463089-0.0839996,0.1463089
				c-0.1894989,0-0.4346008-0.0095291-0.7490082-0.0296783c-0.2988892-0.0287857-0.5263977-0.0307541-0.6825867-0.0307541
				c-0.1788025,0-0.4112091,0.0019684-0.7071075,0.0307541c-0.2861023,0.0201492-0.5135956,0.0296783-0.6582031,0.0296783
				c-0.0614929,0-0.0848999-0.0498199-0.0848999-0.1463089c0-0.0877457,0.023407-0.1367722,0.0927124-0.1391296
				c0.4316864-0.0455933,0.7284851-0.1223297,0.8827972-0.2374878c0.164093-0.1113281,0.2509918-0.3223877,0.256897-0.6294403
				l0.1875-4.8303452v-0.0455856c0-0.2768936-0.0830078-0.4629898-0.2451019-0.5853195
				c-0.1670074-0.1041565-0.467804-0.1875763-0.9179993-0.2399521c-0.0380859,0-0.0713043-0.048439-0.0713043-0.1386414
				c0-0.0958939,0.0332184-0.1448288,0.0839996-0.1448288c0.1260071,0,0.2881012,0.010025,0.5117035,0.0331116
				c0.1885071,0.0196533,0.3368988,0.0253525,0.4365082,0.0253525c0.1220856,0,0.2695923-0.0056992,0.4433899-0.0253525
				c0.1728058-0.0230865,0.3202972-0.0331116,0.4452972-0.0331116l5.0263977,5.5206985v-4.3759995
				c0-0.2830811-0.0810852-0.4922714-0.253891-0.6059494c-0.1728973-0.1194839-0.4853973-0.2029037-0.9277954-0.2552795
				c-0.0673981-0.0086441-0.0927124-0.052269-0.0927124-0.1386414c0-0.0958939,0.0253143-0.1448288,0.0927124-0.1448288
				c0.1816864,0,0.4306946,0.010025,0.7402954,0.0331116c0.2958984,0.0196533,0.5223999,0.0253525,0.6777039,0.0253525
				c0.1767883,0,0.414093-0.0056992,0.7108917-0.0253525c0.2841949-0.0230865,0.5077972-0.0331116,0.660202-0.0331116
				C196.8920898,93.3320084,196.9223022,93.3809433,196.9223022,93.4768372z"/>
		</g>
		<path fill="#28295F" d="M49.7445984,97.2065964H0.4673c-0.1709,0-0.3106-0.132843-0.3106-0.3012543
			c0-0.1660538,0.1397-0.3027344,0.3106-0.3027344h49.277298c0.169899,0,0.3096008,0.1366806,0.3096008,0.3027344
			C50.0541992,97.0737534,49.9144974,97.2065964,49.7445984,97.2065964z"/>
		<path fill="#28295F" d="M255.2279968,97.2065964h-49.2783051c-0.1651001,0-0.3085938-0.132843-0.3085938-0.3012543
			c0-0.1660538,0.1434937-0.3027344,0.3085938-0.3027344h49.2783051c0.1699066,0,0.3065948,0.1366806,0.3065948,0.3027344
			C255.5345917,97.0737534,255.3979034,97.2065964,255.2279968,97.2065964z"/>
	</g>
</g>
</svg>
