<?xml version="1.0" encoding="utf-8"?>
<!-- Generator: Adobe Illustrator 23.0.3, SVG Export Plug-In . SVG Version: 6.00 Build 0)  -->
<svg version="1.1" id="Layer_1" xmlns="http://www.w3.org/2000/svg" xmlns:xlink="http://www.w3.org/1999/xlink" x="0px" y="0px"
	 viewBox="0 0 512.6 617.2" style="enable-background:new 0 0 512.6 617.2;" xml:space="preserve">
<style type="text/css">
	.st0{fill:#313383;}
</style>
<g>
	<g>
		<g>
			<path class="st0" d="M29,186.9l42.9,10.9l-1.9,7.5l-42.9-10.9l-3.5,13.7l-6.8-1.7l8.9-34.9l6.8,1.7L29,186.9z"/>
			<path class="st0" d="M99.2,139l-19.1-11.7L69.2,145l19.1,11.7l-4.1,6.6l-43.7-26.9l4.1-6.6l18.6,11.5l10.9-17.7l-18.6-11.5
				l4.1-6.6l43.7,26.9L99.2,139z"/>
			<path class="st0" d="M121.2,112.1L87.6,73.3l24.8-21.4l4.6,5.3L98.1,73.5l9.8,11.3L124,70.9l4.5,5.2l-16.1,13.9l10.1,11.7
				l18.9-16.3l4.6,5.3L121.2,112.1z"/>
			<path class="st0" d="M226.8,57.3l-31.3-29.7l8.3,35.1l-7.6,1.8l-11.8-49.9l6.9-1.6l31.3,29.6l-8.3-35l7.6-1.8l11.8,49.9
				L226.8,57.3z"/>
			<path class="st0" d="M291.1,51.8c-3.8,3.2-8.5,4.7-14,4.3s-9.7-2.8-12.9-6.6c-4.6-5.5-4-11.1-3.2-20.9c0.9-9.8,1.3-15.5,6.7-20.1
				c3.8-3.2,8.4-4.8,13.9-4.3s9.8,2.8,13,6.6c4.6,5.5,3.9,11.1,3.1,20.9S296.6,47.2,291.1,51.8z M288.4,14.9
				c-1.6-2.1-4.3-3.6-7.3-3.8c-3-0.3-5.9,0.7-7.9,2.5c-2.7,2.5-3.5,5.3-4.4,15.6c-0.9,10.3-0.6,13.2,1.6,16.1
				c1.6,2.1,4.3,3.6,7.3,3.8c3,0.3,5.9-0.7,7.9-2.5c2.7-2.5,3.5-5.3,4.4-15.6C290.9,20.8,290.7,17.8,288.4,14.9z"/>
			<path class="st0" d="M353.9,78.3L368,47.1L346.9,65l-5.2-2.4L341,34.8l-14.1,31.2l-7.1-3.2l21.2-46.7l7.1,3.2l0.5,35.2l26.5-23
				l7.1,3.2L361,81.5L353.9,78.3z"/>
			<path class="st0" d="M403.9,117.6l4.5-9.9l-14.7-13.9l-9.6,5.1l-6-5.7l48.9-24.3l4.5,4.3l-21.6,50.1L403.9,117.6z M421.4,79.5
				l-21.4,11l11.5,10.8L421.4,79.5z"/>
			<path class="st0" d="M441.6,165.3c-4.4-1.3-8.1-4.6-10.6-9.2l-8.7-15.7l44.8-24.9l8.7,15.7c2.6,4.7,3.5,9.5,2.2,13.9
				c-2.2,7.5-8.9,10.9-15.4,14.5C456.1,163.1,449.1,167.4,441.6,165.3z M470.5,143.1c1-3,0.6-6.1-1.2-9.3l-4.6-8.2l-32.6,18.1
				l4.6,8.2c1.8,3.2,4.1,5.2,7.2,5.9c3.9,0.9,8.8-1.7,14.9-5.2C465,149.3,469.2,146.9,470.5,143.1z"/>
			<path class="st0" d="M450.3,209.4c-1.6-7.5-0.9-13.3,3-19.1l6.1,4c-2.9,4.4-3.2,8.7-2.1,13.8c1.4,6.6,5,9.8,9.8,8.8
				c2.2-0.5,3.9-1.5,4.8-3.1c0.9-1.5,1.2-2.9,1-5.9l-0.4-6.1c-0.3-4.2,0.5-7.7,2.1-10.3c1.8-2.9,4.7-4.8,8.8-5.6
				c8.7-1.8,16,3.3,18.2,13.7c1.4,6.6,0.6,11.6-2.5,16.8l-5.8-3.9c2.3-3.7,2.5-7.5,1.6-11.7c-1.2-5.9-5.3-8.5-9.7-7.6
				c-1.8,0.4-3.3,1.3-4.3,2.9c-0.9,1.5-1.3,3.7-1.2,6.1l0.3,5.9c0.3,4.8-0.3,7.6-1.8,10.1c-1.8,3.2-5.2,5.3-9.5,6.2
				C459.5,226.3,452.5,219.9,450.3,209.4z"/>
		</g>
	</g>
	<g>
		<g>
			<g>
				<g>
					<g>
						<path class="st0" d="M238.6,381.5h-23.3c-3.7,0-6.7-3-6.7-6.7c0-1.9,0.8-3.7,2.3-5c1.6-1.4,2.9-3.3,3.5-5.4l14.2-45.4
							c0.7-2.1,2.9-3.3,5-2.6c2.1,0.7,3.3,2.9,2.6,5l-14.2,45.4c-0.8,2.5-2,4.7-3.6,6.7h20.1c0-1.4,0.2-2.7,0.6-4
							c0.4-1.3,0.9-2.6,1.6-3.7l8.1-13.7c1.1-1.9,3.6-2.5,5.5-1.4c1.9,1.1,2.5,3.6,1.4,5.5l-8.1,13.7c-0.3,0.6-0.6,1.1-0.7,1.8
							c-0.2,0.6-0.3,1.3-0.3,1.9C246.6,377.9,243,381.5,238.6,381.5L238.6,381.5z M216.2,375.8C216.2,375.8,216.2,375.8,216.2,375.8
							C216.2,375.8,216.2,375.8,216.2,375.8z"/>
					</g>
					<g>
						<path class="st0" d="M283.8,381.5h-21.3c-2.3,0-4.4-1.1-5.8-2.9c-1.4-1.8-1.8-4.3-1.1-6.5c0.2-0.7,0.3-1.1,0.3-1.4
							c-1.6-3.2-3.2-6.6-5-10.2c-7.8-16.1-18.5-38.1-25.8-41.3c-0.4-0.2-3-1-13.2-0.1c-2.2,0.2-4.1-1.4-4.3-3.6
							c-0.2-2.2,1.4-4.1,3.6-4.3c11.4-1,15.2,0,17.1,0.8c9.3,4.1,18.3,21.3,29.8,45.2c1.8,3.7,3.5,7.2,5.1,10.5c1,1.9,0.7,4.1,0.2,6
							h19c-0.6-4.5-1.5-11.9-1.9-18.7c-0.7-12.2,0.7-15.5,3.3-17c5.5-3.3,21.4-3.3,28-3.1c2.2,0.1,3.9,1.9,3.9,4.1s-1.9,3.9-4.1,3.9
							c-12.7-0.3-20.4,0.8-23,1.7c-0.7,3.1-0.3,13.7,1.8,29.4c0.3,1.9-0.3,3.9-1.6,5.4C287.6,380.6,285.8,381.5,283.8,381.5
							L283.8,381.5z M263.2,374.4C263.2,374.4,263.2,374.4,263.2,374.4C263.2,374.4,263.2,374.4,263.2,374.4z M256.1,371.1
							C256.1,371.1,256.1,371.1,256.1,371.1C256.1,371.1,256.1,371.1,256.1,371.1z"/>
					</g>
					<g>
						<path class="st0" d="M160.9,328.2c-7.4,0-12-4.8-16.1-9.9c-2-2.5-3.9-5.4-3.4-8.6c0.5-3,2.9-4.6,4.8-5.8
							c2.6-1.7,5.1-3.3,5.7-8.9c0.1-0.9,0.2-1.8,0.2-2.6c1-10.6,1.3-14.7,6.8-25.4c-0.3-8.5,2.8-14.4,9.5-17.9
							c4.5-2.4,9.7-1.3,13.5-0.5c0.8,0.2,1.6,0.4,2.3,0.4c1.9-0.2,10.3-2.2,19.2-4.2c20.4-4.8,54.6-12.8,86.2-17.7
							c2.2-0.3,4.2,1.2,4.5,3.3c0.3,2.2-1.2,4.2-3.3,4.5c-31.3,4.8-65.3,12.8-85.6,17.6c-16.6,3.9-20,4.6-21.8,4.4
							c-1-0.1-2-0.4-3.2-0.6c-2.7-0.6-6.1-1.3-8.1-0.3c-3.5,1.8-5.7,4.5-5.2,11.5c0,0.7-0.1,1.4-0.4,2.1c-5.2,10-5.4,12.9-6.4,23.4
							c-0.1,0.8-0.2,1.7-0.2,2.6c-0.9,9.5-6.2,12.9-9.3,14.9c-0.3,0.2-0.6,0.4-0.9,0.6c0.2,0.4,0.7,1.1,1.4,2
							c5.4,6.7,8.3,8,14.2,6.1c5.4-1.7,17.3-4.3,28.8-6.1c2.2-0.4,4.2,1.1,4.6,3.3c0.4,2.2-1.1,4.2-3.3,4.6
							c-12.5,2-23.3,4.5-27.6,5.9C165.1,327.9,162.9,328.2,160.9,328.2L160.9,328.2z M184.3,249.2
							C184.3,249.2,184.3,249.2,184.3,249.2C184.3,249.2,184.3,249.2,184.3,249.2z"/>
					</g>
					<g>
						<path class="st0" d="M385.2,381.5h-21.4c-2.3,0-4.4-1.1-5.8-2.9c-1.4-1.8-1.8-4.3-1.1-6.5c0.2-0.7,0.3-1.2,0.3-1.4
							c-1.6-3.2-3.3-6.7-5-10.3c-1.8-3.8-3.8-7.7-5.7-11.6c-0.8-0.9-5.3-3.4-18.3-5c-2.2-0.3-3.7-2.3-3.5-4.4
							c0.3-2.2,2.3-3.7,4.4-3.5c20.2,2.5,23.2,7.2,24.1,8.8c0.1,0.1,0.1,0.2,0.2,0.3c2,4,4,8,5.9,12c1.8,3.8,3.5,7.3,5.2,10.6
							c1,1.9,0.7,4.1,0.2,6h19.1c-1.6-13.2-5.2-45.5-5.9-56.2c-0.5-7.2-0.2-14.9,0-23c0.7-23.2,1.5-47.2-16.1-58.5
							c-3.5-2.2-9-3.7-16.5-4.4c-2.2-0.2-3.8-2.1-3.6-4.3c0.2-2.2,2.1-3.8,4.3-3.6c8.9,0.8,15.5,2.6,20.1,5.6
							c21.4,13.7,20.5,41.2,19.8,65.5c-0.2,7.9-0.5,15.3,0,22.2c0.7,10.9,4.5,45,6,57.1c0.2,1.9-0.4,3.9-1.7,5.3
							C389,380.6,387.2,381.5,385.2,381.5L385.2,381.5z M384,374.8L384,374.8L384,374.8z M357.4,371.1
							C357.4,371.1,357.4,371.1,357.4,371.1C357.4,371.1,357.4,371.1,357.4,371.1z"/>
					</g>
					<g>
						<path class="st0" d="M305.7,233c-2,0-3.7-1.5-4-3.5c-0.3-2.2,1.3-4.2,3.5-4.4c8.6-1,16.5-1.7,23.4-1.9c2.2-0.1,4,1.6,4.1,3.8
							c0.1,2.2-1.6,4-3.8,4.1c-6.7,0.2-14.4,0.9-22.7,1.9C306,233,305.9,233,305.7,233L305.7,233z"/>
					</g>
					<g>
						<path class="st0" d="M156.2,201.6c-6.9,0-12.5-5.6-12.5-12.5s5.6-12.5,12.5-12.5c6.9,0,12.5,5.6,12.5,12.5
							S163.1,201.6,156.2,201.6z M156.2,184.6c-2.5,0-4.5,2-4.5,4.5c0,2.5,2,4.5,4.5,4.5c2.5,0,4.5-2,4.5-4.5
							C160.8,186.7,158.7,184.6,156.2,184.6z"/>
					</g>
					<g>
						<path class="st0" d="M219,227c-6.9,0-12.5-5.6-12.5-12.5c0-6.9,5.6-12.5,12.5-12.5c6.9,0,12.5,5.6,12.5,12.5
							C231.5,221.4,225.9,227,219,227z M219,210c-2.5,0-4.5,2-4.5,4.5c0,2.5,2,4.5,4.5,4.5c2.5,0,4.5-2,4.5-4.5
							C223.5,212,221.5,210,219,210z"/>
					</g>
					<g>
						<path class="st0" d="M297.5,239.5c-6.9,0-12.5-5.6-12.5-12.5c0-6.9,5.6-12.5,12.5-12.5s12.5,5.6,12.5,12.5
							C310,233.9,304.4,239.5,297.5,239.5z M297.5,222.5c-2.5,0-4.5,2-4.5,4.5c0,2.5,2,4.5,4.5,4.5c2.5,0,4.5-2,4.5-4.5
							C302,224.6,300,222.5,297.5,222.5z"/>
					</g>
					<g>
						<path class="st0" d="M168.1,363.3c-6.9,0-12.5-5.6-12.5-12.5s5.6-12.5,12.5-12.5s12.5,5.6,12.5,12.5S175,363.3,168.1,363.3z
							 M168.1,346.3c-2.5,0-4.5,2-4.5,4.5c0,2.5,2,4.5,4.5,4.5s4.5-2,4.5-4.5C172.6,348.4,170.6,346.3,168.1,346.3z"/>
					</g>
					<g>
						<path class="st0" d="M320.3,351.1c-6.9,0-12.5-5.6-12.5-12.5s5.6-12.5,12.5-12.5s12.5,5.6,12.5,12.5S327.2,351.1,320.3,351.1z
							 M320.3,334.1c-2.5,0-4.5,2-4.5,4.5c0,2.5,2,4.5,4.5,4.5c2.5,0,4.5-2,4.5-4.5C324.8,336.1,322.8,334.1,320.3,334.1z"/>
					</g>
					<g>
						<path class="st0" d="M375.7,207.8c-6.9,0-12.5-5.6-12.5-12.5s5.6-12.5,12.5-12.5s12.5,5.6,12.5,12.5S382.5,207.8,375.7,207.8z
							 M375.7,190.8c-2.5,0-4.5,2-4.5,4.5c0,2.5,2,4.5,4.5,4.5c2.5,0,4.5-2,4.5-4.5C380.2,192.9,378.1,190.8,375.7,190.8z"/>
					</g>
					<g>
						<path class="st0" d="M184.6,322.9c-0.2,0-0.4,0-0.6,0c-3.6-0.6-15.9-2.9-23.1-9.1c-6.8-5.9-9.2-9.9-9.8-11
							c-1-1.9-0.3-4.4,1.7-5.4c1.9-1,4.4-0.3,5.4,1.7c0.1,0.1,1.8,3.4,8,8.7c5.8,5.1,17.7,7,19.1,7.3c2.2,0.3,3.7,2.4,3.3,4.5
							C188.2,321.5,186.6,322.9,184.6,322.9z"/>
					</g>
					<g>
						<path class="st0" d="M393,448.7H143.9c-6.3,0-11.4-5.1-11.4-11.4v-42.5c0-2.2,1.8-4,4-4s4,1.8,4,4v42.5c0,1.9,1.5,3.5,3.5,3.5
							H393c1.9,0,3.5-1.5,3.5-3.5v-42.5c0-2.2,1.8-4,4-4s4,1.8,4,4v42.5C404.4,443.5,399.3,448.7,393,448.7z"/>
					</g>
					<g>
						<path class="st0" d="M214.9,434.2c-10.4,0-18.7-5.4-26.1-10.1c-5.7-3.7-11-7.1-16.6-7.7c-4.2-0.5-8.6,1.6-13.3,3.7
							c-7.1,3.3-16,7.3-24.9,1.1c-1.1-0.7-1.7-2-1.7-3.3v-32.9c0-6.3,5.1-11.4,11.4-11.4H393c6.3,0,11.4,5.1,11.4,11.4v32.9
							c0,1.7-1.1,3.3-2.8,3.8c-9.5,3-15.4-1-20.5-4.5c-2.4-1.7-4.8-3.2-7.5-4.2c-4.8-1.7-9.8-1.5-15.9,0.7c-2.1,0.8-4.4-0.3-5.1-2.4
							c-0.8-2.1,0.3-4.4,2.4-5.1c7.9-2.9,14.7-3.1,21.3-0.7c3.7,1.3,6.7,3.4,9.3,5.1c3.9,2.7,6.7,4.6,10.9,4.1v-29.8
							c0-1.9-1.5-3.5-3.5-3.5H143.9c-1.9,0-3.5,1.5-3.5,3.5v30.7c4.3,2,8.8,0.2,15.3-2.8c5.2-2.4,11.1-5.1,17.5-4.4
							c7.4,0.8,13.8,5,20,9c7,4.5,13.7,8.8,21.8,8.8c11.6,0,21.7-4.6,31.5-9c8.6-3.9,16.7-7.6,25.2-8c9-0.4,17.2,3.1,25.1,6.5
							c7.3,3.1,14.1,6.1,21.2,5.9c6.9-0.2,13.7-3.6,21.2-7.7c1.9-1,4.4-0.3,5.4,1.6c1,1.9,0.3,4.4-1.6,5.4
							c-8.1,4.4-16.1,8.4-24.8,8.6c-8.8,0.3-16.9-3.2-24.6-6.5c-7.4-3.2-14.4-6.2-21.6-5.8c-7,0.3-14.5,3.7-22.3,7.3
							C239.6,429,228.2,434.2,214.9,434.2z"/>
					</g>
				</g>
			</g>
		</g>
	</g>
	<g>
		<path class="st0" d="M20.1,399.8v-3l9.1-11.1c0.9-1.1,1.3-2,1.3-3.2c0-2.1-1.3-3.6-3.5-3.6c-1.8,0-3.5,1-3.5,3.7h-3.4
			c0-4,2.9-6.7,6.9-6.7c4.1,0,6.9,2.6,6.9,6.7c0,2.1-0.8,3.3-2.2,5.1l-7.4,9.1h9.7v3H20.1z"/>
		<path class="st0" d="M51.9,400c-3.8,0-6.8-2.6-6.8-6.8v-10.5c0-4.2,3.1-6.8,6.8-6.8s6.9,2.6,6.9,6.8v10.5
			C58.8,397.5,55.7,400,51.9,400z M55.4,382.8c0-2.3-1.3-3.9-3.5-3.9s-3.4,1.6-3.4,3.9v10.3c0,2.3,1.3,3.9,3.4,3.9s3.5-1.6,3.5-3.9
			V382.8z"/>
	</g>
	<g>
		<path class="st0" d="M458.4,400.8v-20l-4.6,4.1v-3.8l4.6-4h3.4v23.7H458.4z"/>
		<path class="st0" d="M489.2,389.9l-5.4,11h-3.6l5.1-10.2c-0.6,0.3-1.4,0.4-2.1,0.4c-3.4,0-6.2-2.7-6.2-6.9c0-4.4,2.9-7.2,7-7.2
			s7,2.7,7,7.1C490.9,386,490.2,387.8,489.2,389.9z M483.9,380c-2.1,0-3.6,1.6-3.6,4.1c0,2.3,1.3,4.1,3.6,4.1c2.1,0,3.6-1.5,3.6-4.1
			C487.5,381.6,486,380,483.9,380z"/>
	</g>
	<g>
		<path class="st0" d="M90.4,507l13.6-7.2l-12.4,0.6l-1.2-2.3l7.4-10.1l-13.6,7.2l-1.6-3.1l20.3-10.8l1.6,3.1L95,497.1l15.8-0.9
			l1.6,3.1l-20.3,10.8L90.4,507z"/>
		<path class="st0" d="M109.3,534.3c-3-3.6-2.8-8.4,0.9-11.4l11.8-9.7l2.2,2.7l-11.7,9.6c-2.4,2-2.7,4.6-0.8,6.8s4.5,2.5,6.9,0.5
			l11.7-9.6l2.2,2.7l-11.8,9.7C117,538.6,112.2,537.9,109.3,534.3z"/>
		<path class="st0" d="M134.2,559.6c-2.6-2.2-4-4.5-4.3-7.6l3.3-0.2c0.2,2.4,1.3,4,3.1,5.5c2.3,1.9,4.5,2.1,5.9,0.4
			c0.6-0.8,1-1.6,0.9-2.4c-0.1-0.8-0.4-1.3-1.3-2.4l-1.8-2.1c-1.3-1.4-2-2.9-2.1-4.2c-0.2-1.5,0.3-3,1.6-4.4
			c2.6-3.1,6.6-3.3,10.3-0.2c2.3,2,3.5,3.9,3.8,6.6l-3.1,0.2c-0.2-2-1.2-3.3-2.7-4.6c-2.1-1.8-4.2-1.5-5.5,0
			c-0.5,0.6-0.8,1.4-0.7,2.2c0.1,0.8,0.6,1.7,1.3,2.5l1.8,2c1.4,1.6,2,2.8,2.2,4.1c0.3,1.7-0.3,3.3-1.6,4.8
			C142.2,563,137.9,562.7,134.2,559.6z"/>
		<path class="st0" d="M156.9,576l12.2-19.6l3,1.8l-12.2,19.6L156.9,576z"/>
		<path class="st0" d="M185.1,591.1c-2.2-0.9-3.8-2.6-4.6-4.6c-1.2-3-0.2-5.3,1.6-9.4c1.7-4.1,2.7-6.4,5.7-7.6
			c2.1-0.8,4.3-0.8,6.5,0.1c3.9,1.7,5.8,5.2,4.8,9.8l-3.3-1.4c0.4-2.4-0.4-4.5-2.7-5.5c-1.2-0.5-2.6-0.5-3.7-0.1
			c-1.5,0.7-2.3,1.8-4.1,6.1c-1.8,4.3-2.1,5.6-1.6,7.2c0.4,1.1,1.3,2.1,2.6,2.6c2.4,1,4.4,0.1,5.9-1.8l3.2,1.4
			C193,591.8,189,592.8,185.1,591.1z"/>
		<path class="st0" d="M239.6,585.4l-0.8,7l9.5,1.1l-0.4,3.1l-9.5-1.1l-1.1,9.7l-3.5-0.4l2.7-22.9l14.6,1.7l-0.4,3.1L239.6,585.4z"
			/>
		<path class="st0" d="M267.9,606.9l-1.3-23l14.7-0.8l0.2,3.1l-11.2,0.6l0.4,6.7l9.6-0.5l0.2,3.1l-9.6,0.5l0.4,6.9l11.2-0.6l0.2,3.1
			L267.9,606.9z"/>
		<path class="st0" d="M308.6,602c-3.4,0.8-6,0.6-8.6-1.1l1.7-2.8c2,1.3,3.9,1.3,6.2,0.8c2.9-0.7,4.3-2.3,3.8-4.5
			c-0.2-1-0.7-1.7-1.4-2.1c-0.7-0.4-1.3-0.5-2.7-0.4l-2.7,0.2c-1.9,0.2-3.5-0.1-4.7-0.8c-1.3-0.8-2.2-2.1-2.6-3.9
			c-0.9-3.9,1.3-7.2,6-8.3c3-0.7,5.2-0.4,7.6,0.9l-1.7,2.7c-1.7-1-3.4-1-5.3-0.6c-2.6,0.6-3.7,2.5-3.3,4.5c0.2,0.8,0.6,1.5,1.3,1.9
			c0.7,0.4,1.7,0.5,2.8,0.5l2.6-0.2c2.2-0.2,3.4,0.1,4.6,0.7c1.5,0.8,2.5,2.3,2.9,4.2C316.1,597.6,313.3,600.9,308.6,602z"/>
		<path class="st0" d="M335.1,572.1l7.8,18.3l-3.2,1.4l-7.8-18.3L326,576l-1.2-2.9l14.9-6.3l1.2,2.9L335.1,572.1z"/>
		<path class="st0" d="M365.4,578.9l-12-19.7l3-1.8l12,19.7L365.4,578.9z"/>
		<path class="st0" d="M391.4,560.4l-2.1,1.7l-20.5-13l2.8-2.3l14.8,9.5l-6.6-16.3l2.8-2.4L391.4,560.4z"/>
		<path class="st0" d="M418.3,533.3l-4.5-1.8l-6,6.9l2.5,4.2l-2.4,2.8l-11.9-21.5l1.8-2.1l23,8.7L418.3,533.3z M400.9,526.2l5.4,9.4
			l4.6-5.4L400.9,526.2z"/>
		<path class="st0" d="M431.5,515.2l-19.8-11.9l1.8-3l17.1,10.2l5.7-9.5l2.7,1.6L431.5,515.2z"/>
	</g>
</g>
</svg>
